<svg viewBox="0 0 24 24" fill="currentColor" xmlns="http://www.w3.org/2000/svg">
<path d="M14.1657 0.100572C13.9748 0.229248 10.6915 3.83217 6.87371 8.14281C1.35698 14.3407 -0.0556127 16.0349 0.00165441 16.421L0.0589214 16.8928L9.35529 16.9571L18.6517 17L18.9571 16.5067C19.1098 16.2279 19.4343 15.1985 19.6443 14.212C20.1788 11.8315 20.1024 7.92835 19.4725 5.95532C18.4417 2.73843 15.3874 -0.628592 14.1657 0.100572ZM16.2464 2.82421C17.22 3.85362 17.8117 4.96881 18.4035 6.92039C18.8998 8.52884 18.8616 12.4749 18.3462 14.3193L17.9835 15.606H10.5579L10.4052 14.4265C10.2143 12.9253 9.48891 11.2096 8.53446 10.0729L7.7709 9.19366L9.06895 7.71389C9.77525 6.8775 11.3596 5.11893 12.5622 3.78928C14.3566 1.81625 14.8148 1.43022 15.0438 1.62324C15.1965 1.75191 15.7501 2.28806 16.2464 2.82421ZM7.63727 11.038C8.34357 11.8959 9.06895 13.5901 9.24076 14.7911L9.37438 15.7132H5.70928C3.70493 15.7132 2.06327 15.6918 2.06327 15.6489C2.06327 15.4773 6.75918 10.3517 6.8928 10.3517C6.96916 10.3517 7.31276 10.6734 7.63727 11.038Z"/>
<path d="M14.1657 0.100572C13.9748 0.229248 10.6915 3.83217 6.87371 8.14281C1.35698 14.3407 -0.0556127 16.0349 0.00165441 16.421L0.0589214 16.8928L9.35529 16.9571L18.6517 17L18.9571 16.5067C19.1098 16.2279 19.4343 15.1985 19.6443 14.212C20.1788 11.8315 20.1024 7.92835 19.4725 5.95532C18.4417 2.73843 15.3874 -0.628592 14.1657 0.100572ZM16.2464 2.82421C17.22 3.85362 17.8117 4.96881 18.4035 6.92039C18.8998 8.52884 18.8616 12.4749 18.3462 14.3193L17.9835 15.606H10.5579L10.4052 14.4265C10.2143 12.9253 9.48891 11.2096 8.53446 10.0729L7.7709 9.19366L9.06895 7.71389C9.77525 6.8775 11.3596 5.11893 12.5622 3.78928C14.3566 1.81625 14.8148 1.43022 15.0438 1.62324C15.1965 1.75191 15.7501 2.28806 16.2464 2.82421ZM7.63727 11.038C8.34357 11.8959 9.06895 13.5901 9.24076 14.7911L9.37438 15.7132H5.70928C3.70493 15.7132 2.06327 15.6918 2.06327 15.6489C2.06327 15.4773 6.75918 10.3517 6.8928 10.3517C6.96916 10.3517 7.31276 10.6734 7.63727 11.038Z" fill-opacity="0.5"/>
</svg>
