<?xml version="1.0" encoding="utf-8"?>
<!-- Generator: Adobe Illustrator 28.1.0, SVG Export Plug-In . SVG Version: 6.00 Build 0)  -->
<svg version="1.1" id="Слой_1" xmlns="http://www.w3.org/2000/svg" xmlns:xlink="http://www.w3.org/1999/xlink" x="0px" y="0px"
	 viewBox="0 0 24 24" style="enable-background:new 0 0 24 24;" xml:space="preserve">
<style type="text/css">
	.st0{display:none;}
	.st1{display:inline;fill:none;stroke:#000000;stroke-miterlimit:1;}
	.st2{display:inline;fill:none;stroke:#000000;stroke-width:0.4;stroke-miterlimit:10;}
	.st3{display:inline;}
	.st4{fill:none;stroke:#000000;stroke-width:0.4;stroke-miterlimit:10;}
	.st5{stroke:#000000;stroke-width:0.25;stroke-miterlimit:10;}
	.st6{display:none;fill:none;stroke:#000000;stroke-width:0.4;stroke-miterlimit:10;}
</style>
<g class="st0">
	<path class="st1" d="M20.26,3.87"/>
	<path class="st1" d="M3.74,20.39"/>
	<line class="st2" x1="14.27" y1="6.14" x2="18.56" y2="6.14"/>
	<line class="st2" x1="14.27" y1="8.8" x2="18.56" y2="8.8"/>
	<line class="st2" x1="14.27" y1="11.77" x2="18.56" y2="11.77"/>
	<line class="st2" x1="5.4" y1="14.73" x2="18.56" y2="14.73"/>
	<line class="st2" x1="5.4" y1="17.7" x2="18.56" y2="17.7"/>
	<line class="st2" x1="6.6" y1="6.19" x2="11.66" y2="6.19"/>
	<line class="st2" x1="9.09" y1="11.76" x2="9.09" y2="6.14"/>
	<path class="st2" d="M6.8,6.09v0.96V6.09z"/>
	<path class="st2" d="M11.61,7.45"/>
	<path class="st2" d="M11.61,6.3"/>
	<line class="st2" x1="7.87" y1="11.79" x2="10.31" y2="11.79"/>
	<path class="st2" d="M3.25,6.73c0-1.8,1.32-3.26,2.95-3.26"/>
	<path class="st2" d="M20.74,6.64c0-1.8-1.32-3.26-2.95-3.26"/>
	<path class="st2" d="M3.26,17.27c0,1.8,1.32,3.26,2.95,3.26"/>
	<path class="st2" d="M20.75,17.36c0,1.8-1.32,3.26-2.95,3.26"/>
	<line class="st2" x1="11.46" y1="6.09" x2="11.46" y2="7.05"/>
</g>
<g class="st0">
	<path class="st2" d="M10.39,12.56c-1.58,0.75-1.56,3.43,0,4.1"/>
	<path class="st2" d="M13.51,12.65c1.58,0.75,1.56,3.43,0,4.1"/>
</g>
<g class="st0">
	<line class="st2" x1="6.44" y1="3.79" x2="6.46" y2="17.65"/>
	<line class="st2" x1="20.27" y1="17.46" x2="6.26" y2="17.46"/>
	<line class="st2" x1="6.49" y1="3.93" x2="20.13" y2="17.4"/>
	<line class="st2" x1="6.45" y1="14.99" x2="9.18" y2="14.99"/>
	<path class="st2" d="M8.98,14.92v2.36V14.92z"/>
	
		<ellipse transform="matrix(0.2203 -0.9754 0.9754 0.2203 -8.3861 13.6777)" class="st2" cx="4.36" cy="12.08" rx="0.83" ry="0.63"/>
	<path class="st2" d="M12.75,20.14c-1.47,0.5-1.55-1.96,0.02-1.49"/>
	<g class="st3">
		<ellipse class="st4" cx="14.92" cy="8.56" rx="0.63" ry="0.83"/>
		<path class="st4" d="M14.15,6.05c0.41,2.49-0.08,3.58-0.84,2.97"/>
	</g>
	<path class="st2" d="M5.45,11.36c-0.44,0.06-0.79,1.53,0.08,1.43"/>
</g>
<g class="st0">
	<path class="st2" d="M9.63,8.36C6,8.38,9.63,15.64,6,15.64"/>
	<path class="st2" d="M6.14,11.01c0.78-0.9,2.64,0.99,3.35,0.12"/>
	<path class="st2" d="M14.87,10.68c1.79,0,1.71,2.64,0,2.64"/>
	<path class="st2" d="M17.51,10.68c-1.82,0-1.73,2.64,0,2.64"/>
	<g class="st3">
		<line class="st4" x1="3.72" y1="5.2" x2="3.72" y2="19.7"/>
		<line class="st4" x1="20.28" y1="5.2" x2="20.28" y2="19.7"/>
		<line class="st4" x1="12.01" y1="5.01" x2="12.01" y2="19.7"/>
		<path class="st4" d="M3.79,19.54c0-0.04,4.29-2.02,8.11-0.02"/>
		<path class="st4" d="M20.2,19.54c0-0.04-4.29-2.02-8.11-0.02"/>
		<path class="st4" d="M3.72,5.25c0-0.04,4.37-2.06,8.19-0.06"/>
		<path class="st4" d="M20.28,5.25c0-0.04-4.37-2.07-8.19-0.07"/>
	</g>
</g>
<g class="st0">
	<path class="st2" d="M5.11,11.6"/>
	<path class="st2" d="M5.84,4.13"/>
	<path class="st2" d="M5.11,11.74c1.14-0.04,0.12-8.02,0.88-8.18"/>
	<path class="st2" d="M5.84,3.69c0.95-0.95,2.82-0.27,2.81,1.03C8.64,6.07,7.85,6.5,6.81,6.5"/>
	<path class="st2" d="M6.72,6.49c1.25,0.07,2.15,0.65,2.04,1.93C8.65,9.87,7,10.46,5.67,9.79"/>
	<g class="st3">
		<path class="st5" d="M12.62,3.36L12.8,3.3l1.25,2.72l4.9,0l1.25-2.72l0.19,0.06l-3.77,8.33h-0.22L12.62,3.36z M14.13,6.2
			l2.37,5.23l2.37-5.24L14.13,6.2z"/>
	</g>
	<path class="st2" d="M13.23,14.46c2.59-1.79,4.49,1.44,6.53-0.28"/>
	<line class="st2" x1="14.51" y1="13.93" x2="14.51" y2="19.89"/>
	<path class="st2" d="M18.49,14.68"/>
	<path class="st2" d="M18.41,14.68c0,5.05,0,5.06,1.27,5.05"/>
	<g class="st3">
		<path class="st4" d="M7.19,13.62c-4.02,0.02-3.87,5.81,0.17,5.79"/>
		<line class="st4" x1="7.19" y1="19.41" x2="10.23" y2="19.41"/>
		<line class="st4" x1="7.19" y1="13.62" x2="10.23" y2="13.62"/>
	</g>
	<line class="st2" x1="10.23" y1="20.31" x2="4.26" y2="20.31"/>
</g>
<g class="st0">
	<path class="st2" d="M9.86,10.52c2.06,0,1.97,3.05,0,3.05"/>
	<path class="st2" d="M12.91,10.52c-2.1,0-2,3.05,0,3.05"/>
	<line class="st2" x1="14.63" y1="10.57" x2="14.63" y2="13.51"/>
	<line class="st2" x1="13.16" y1="12.04" x2="16.11" y2="12.04"/>
	<path class="st2" d="M17.06,10.39c0,1.01-0.05,2.95,1.68,1.65"/>
	<path class="st2" d="M18.79,10.39c0,1.99,0,3.64-1.73,3.64"/>
	<line class="st2" x1="4.08" y1="12" x2="6.6" y2="12"/>
	<line class="st2" x1="6.41" y1="11.89" x2="7.23" y2="13.95"/>
	<line class="st2" x1="9.59" y1="8.56" x2="7.23" y2="14.11"/>
	<line class="st2" x1="19.92" y1="8.68" x2="9.42" y2="8.68"/>
</g>
<g class="st0">
	<path class="st2" d="M5.64,20.34v-7.97c0-0.2,0.16-0.37,0.37-0.37H20.3c0.2,0,0.37,0.16,0.37,0.37v7.97c0,0.2-0.16,0.37-0.37,0.37
		H6.01C5.8,20.7,5.64,20.54,5.64,20.34z"/>
	<path class="st2" d="M5.53,18.26H3.78c-0.27,0-0.48-0.22-0.48-0.48v-14c0-0.27,0.22-0.48,0.48-0.48h7.7c0.27,0,0.48,0.22,0.48,0.48
		v8.15"/>
	<path class="st2" d="M13.5,4.57c3.95-0.01,5.51,3.61,4.71,6.22"/>
	<polygon class="st2" points="18.3,11.03 18.05,11.25 17.98,10.93 17.91,10.61 18.22,10.71 18.54,10.81 	"/>
	<polygon class="st2" points="13.02,4.72 12.75,4.54 13.04,4.39 13.33,4.24 13.32,4.57 13.3,4.89 	"/>
</g>
<g class="st0">
	<path class="st2" d="M16.17,20.47H6.44c-0.32,0-0.58-0.26-0.58-0.58V5.37c0-0.32,0.26-0.58,0.58-0.58h9.73
		c0.32,0,0.58,0.26,0.58,0.58v14.52C16.75,20.21,16.49,20.47,16.17,20.47z"/>
	<path class="st2" d="M10.1,3.53h7.49c0.3,0,0.55,0.25,0.55,0.55v8.16"/>
</g>
<line class="st6" x1="3.18" y1="20.82" x2="20.82" y2="3.18"/>
<path class="st6" d="M3.26,20.63c0-12.97,17.49-4.16,17.48-17.26"/>
<path class="st4" d="M12,19.72L12,19.72c-4.26,0-7.72-3.46-7.72-7.72v0c0-4.26,3.46-7.72,7.72-7.72h0c4.26,0,7.72,3.46,7.72,7.72v0
	C19.72,16.26,16.26,19.72,12,19.72z"/>
</svg>
