<svg viewBox="0 0 24 24" fill="currentColor" xmlns="http://www.w3.org/2000/svg">
<path d="M12 3.625C13.5509 3.625 14.815 4.85301 14.8729 6.38972L14.875 6.5H18.5C18.8452 6.5 19.125 6.77982 19.125 7.125C19.125 7.4486 18.8791 7.71477 18.5639 7.74677L18.5 7.75H17.9545L17.1029 19.0349C17.0193 20.1433 16.0955 21 14.9839 21H9.01606C7.90449 21 6.98074 20.1433 6.89708 19.0349L6.045 7.75H5.5C5.1764 7.75 4.91023 7.50406 4.87823 7.1889L4.875 7.125C4.875 6.8014 5.12094 6.53523 5.4361 6.50323L5.5 6.5H9.125C9.125 4.91218 10.4122 3.625 12 3.625ZM16.7011 7.75H7.29895L8.14354 18.9409C8.17799 19.3973 8.55835 19.75 9.01606 19.75H14.9839C15.4416 19.75 15.822 19.3973 15.8565 18.9409L16.7011 7.75ZM13.625 10.375C13.9486 10.375 14.2148 10.6209 14.2468 10.9361L14.25 11V16.5C14.25 16.8452 13.9702 17.125 13.625 17.125C13.3014 17.125 13.0352 16.8791 13.0032 16.5639L13 16.5V11C13 10.6548 13.2798 10.375 13.625 10.375ZM10.375 10.375C10.6986 10.375 10.9648 10.6209 10.9968 10.9361L11 11V16.5C11 16.8452 10.7202 17.125 10.375 17.125C10.0514 17.125 9.78523 16.8791 9.75323 16.5639L9.75 16.5V11C9.75 10.6548 10.0298 10.375 10.375 10.375ZM12 4.875C11.1335 4.875 10.4254 5.55323 10.3776 6.40779L10.375 6.5H13.625C13.625 5.60254 12.8975 4.875 12 4.875Z"/>
</svg>
