<svg width="24" height="24" viewBox="0 0 24 24" fill="none" xmlns="http://www.w3.org/2000/svg">
<rect width="24" height="24" stroke="black"/>
<path d="M12 21C16.9706 21 21 16.9706 21 12C21 7.02944 16.9706 3 12 3C7.02944 3 3 7.02944 3 12C3 16.9706 7.02944 21 12 21Z" stroke="black" stroke-linecap="round" stroke-linejoin="round"/>
<path d="M8 4V6C8 7.10457 8.89543 8 10 8H11C12.1046 8 13 8.89543 13 10C13 11.1046 13.8954 12 15 12C16.1046 12 17 11.1046 17 10C17 8.89543 17.8954 8 19 8H20M20 16H17C15.8954 16 15 16.8954 15 18V20M11 20V18C11 16.8954 10.1046 16 9 16C7.89543 16 7 15.1046 7 14C7 12.8954 6.10457 12 5 12H3" stroke="black" stroke-linecap="round" stroke-linejoin="round"/>
</svg>
