<svg viewBox="0 0 23 18" fill="currentColor" xmlns="http://www.w3.org/2000/svg">
<path d="M5.79203 0.823522C4.93622 1.3073 4.34666 2.31692 4.19452 3.55791C3.9663 5.21958 3.92826 5.30372 3.2246 5.30372C2.50191 5.30372 2.10253 5.82956 2.21664 6.62885C2.25468 7.00745 2.42584 7.11262 2.99638 7.15469C3.68103 7.21779 3.71907 7.25986 3.62398 7.7857C3.56692 8.10121 3.33871 9.72081 3.12951 11.4035C2.90129 13.0862 2.63504 14.7058 2.52093 15.0213C2.33075 15.5682 1.89334 15.8206 1.09458 15.8206C0.638146 15.8206 0.371894 16.4306 0.562074 17.0826C0.790291 17.8819 2.597 17.4612 3.4338 16.4306C3.66201 16.1571 3.92826 15.5892 4.04237 15.1896C4.34666 14.1169 5.03131 9.0267 5.03131 7.93294V6.98642H6.15337C7.21838 6.98642 7.27544 6.96539 7.37053 6.41851C7.50365 5.59819 7.40856 5.51405 6.34355 5.51405C5.29756 5.51405 5.27854 5.47199 5.62087 3.87342C5.90614 2.54829 6.19141 2.27485 7.37053 2.14865C8.35947 2.04348 8.35946 2.04348 8.35946 1.3073C8.35946 0.571117 8.35946 0.571117 7.40856 0.508015C6.78097 0.465948 6.22945 0.592151 5.79203 0.823522ZM11.1741 2.46416C10.6416 2.88483 9.70974 4.71477 9.38644 6.0399C9.21528 6.67091 9.12019 8.03811 9.1392 9.51047C9.1392 12.1818 9.51956 13.7383 10.4705 15.1265C11.079 16.0309 11.4784 16.1992 11.7827 15.7365C11.9919 15.442 11.8968 15.1265 11.2692 13.7593C10.5846 12.2659 10.5085 11.9504 10.4134 10.0363C10.2803 7.4702 10.6226 5.76646 11.6115 3.97859C12.1631 2.99 12.2391 2.69553 12.068 2.46416C11.7827 2.06452 11.6876 2.06452 11.1741 2.46416ZM19.6562 2.48519C19.447 2.75863 19.466 2.90587 19.7513 3.36861C20.3028 4.31513 20.8353 5.70336 20.9494 6.52368C21.0065 6.94435 21.1206 7.34399 21.1966 7.4071C21.2727 7.4702 21.2727 8.47982 21.1776 9.65771C21.0065 11.8242 20.569 13.4648 19.8464 14.6006C19.3519 15.3579 19.447 15.9258 20.0556 15.9258C20.4169 15.9258 20.6641 15.6734 21.1586 14.7689C21.9574 13.2966 22.3187 11.9294 22.4708 9.91012C22.661 7.21779 21.9003 3.95756 20.7782 2.63243C20.3028 2.06451 19.9985 2.02245 19.6562 2.48519ZM13.4563 5.51405C13.2091 5.61922 13.0189 5.76646 13.0189 5.8506C13.0189 5.93473 13.4563 6.77608 13.9698 7.74364C14.5023 8.71119 14.9207 9.53151 14.9207 9.59461C14.9207 9.63668 14.8066 9.82598 14.6734 9.97322C13.7035 11.067 12.4483 12.981 12.4864 13.2755C12.5244 13.4648 12.7716 13.6331 13.0379 13.6752C13.4563 13.7383 13.7035 13.5069 14.5403 12.3711C15.0728 11.5928 15.5863 10.9828 15.6814 10.9828C15.7575 10.9828 16.0618 11.4245 16.347 11.9714C17.0697 13.3597 17.393 13.7172 17.8495 13.7172C18.7623 13.6962 18.7433 13.4438 17.6593 11.4456C16.4611 9.23703 16.3851 9.78391 18.2108 7.23882C18.7053 6.54471 19.1046 5.87163 19.1046 5.74543C19.1046 5.64026 18.9145 5.47199 18.6863 5.38785C18.3249 5.26165 18.0587 5.47199 17.0697 6.69195C16.4231 7.49123 15.8526 8.08018 15.8145 8.03811C15.7765 7.97501 15.3771 7.34399 14.9397 6.60781C14.1029 5.21958 14.1029 5.21958 13.4563 5.51405Z" />
</svg>
