<svg viewBox="0 0 24 24" fill="currentColor" xmlns="http://www.w3.org/2000/svg">
<path d="M3.8325 0.111393C2.247 0.366132 0.315 1.09214 0.0840003 1.53793C0.0420003 1.62709 0 5.91944 0 11.0779C0 19.4334 0.0209998 20.4778 0.168 20.6561C0.378 20.9236 0.462 20.9108 1.155 20.5924C3.6225 19.4588 7.3605 19.4843 9.8175 20.6816L10.4685 21L11.004 20.7453C11.907 20.3122 13.146 19.981 14.448 19.8155C15.5085 19.6881 15.897 19.7008 17.0625 19.8791C17.8185 19.9938 18.8265 20.2358 19.32 20.4141C20.6115 20.8981 20.6325 20.8981 20.8215 20.6688C20.9895 20.4778 21 19.6499 21 11.1034C21 5.32081 20.958 1.65256 20.895 1.51246C20.6745 1.00298 18.6795 0.302448 16.7685 0.0731827C14.805 -0.168819 12.5685 0.200551 11.004 1.01572L10.5 1.27046L9.996 1.01572C8.3895 0.175078 5.838 -0.194294 3.8325 0.111393ZM8.4525 1.67804C8.9775 1.86909 9.5235 2.07288 9.6915 2.14931L9.975 2.28941V19.4588L9.6915 19.3187C8.3685 18.7073 5.2605 18.3889 3.444 18.6946C2.5935 18.8347 1.7745 19.0385 1.1235 19.2805C0.9555 19.3442 0.945 18.8984 0.966 10.785L0.9975 2.21299L1.785 1.9073C3.213 1.37235 4.0215 1.24498 5.8275 1.29593C7.2555 1.34688 7.6545 1.39783 8.4525 1.67804ZM18.4485 1.61435C18.9315 1.75446 19.488 1.95825 19.6875 2.06015L20.055 2.2512V19.3569L19.824 19.2805C18.417 18.771 17.535 18.6437 15.4875 18.6437C13.545 18.6437 13.3035 18.6564 12.3375 18.9748C11.76 19.1659 11.2035 19.3569 11.109 19.3951C10.9305 19.4843 10.92 19.0258 10.92 10.9378V2.37857L11.382 2.12383C11.8335 1.89457 13.1355 1.46151 13.8075 1.33414C13.986 1.29593 14.8995 1.28319 15.855 1.30867C17.178 1.33414 17.7975 1.41056 18.4485 1.61435Z"/>
<path d="M6.10353 6.11161C5.56048 6.35254 5.24551 6.97898 5.12604 8.07525L5.05002 8.76192H4.6373C4.1377 8.76192 3.96392 8.97876 4.00737 9.50882C4.03995 9.87023 4.07253 9.90637 4.45266 9.94251C4.84366 9.97865 4.86538 10.0027 4.81108 10.3039C4.77849 10.4846 4.64816 11.364 4.52869 12.2555C4.40922 13.147 4.28975 14.0023 4.25717 14.1469C4.18114 14.5324 3.89876 14.7854 3.56207 14.7854C3.08419 14.7854 2.87783 15.219 3.07333 15.7973C3.22538 16.231 4.36578 15.9178 4.8328 15.3395C5.20207 14.8697 5.26723 14.5806 5.62565 11.858L5.87545 9.9666H6.37505C6.96154 9.9666 7.13531 9.80999 7.13531 9.29198C7.13531 8.85829 6.99412 8.76192 6.40763 8.76192C6.03836 8.76192 6.0275 8.74987 6.09266 8.38846C6.12525 8.18367 6.15783 7.91864 6.15783 7.81022C6.15783 7.37653 6.57055 7.07536 7.13531 7.07536C7.65664 7.07536 7.6675 7.06331 7.74353 6.66576C7.77611 6.43687 7.77611 6.19594 7.73267 6.12365C7.65664 5.96704 6.41849 5.955 6.10353 6.11161ZM13.1849 7.76203C13.0219 7.93068 13.1306 8.32823 13.6084 9.30403L14.108 10.328L13.2826 11.364C12.8264 11.9423 12.4572 12.4724 12.4572 12.5446C12.4572 12.7856 12.707 12.9783 13.0111 12.9783C13.2392 12.9783 13.4347 12.7976 13.9343 12.123L14.5533 11.2797L14.9117 11.9784C15.3679 12.8819 15.4548 12.9783 15.7698 12.9783C16.2911 12.9783 16.5517 12.6531 16.2694 12.3037C16.2259 12.2435 15.9761 11.7857 15.7372 11.2797L15.2919 10.3762L16.1608 9.30403C17.1274 8.12343 17.2251 7.76203 16.6278 7.70179C16.3237 7.66565 16.2042 7.76203 15.596 8.50893C15.2158 8.97876 14.8792 9.36426 14.8466 9.36426C14.8031 9.36426 14.6619 9.09923 14.5207 8.76192C14.3796 8.43665 14.1732 8.05115 14.0646 7.91864C13.8691 7.68975 13.3369 7.59337 13.1849 7.76203Z" />
</svg>
