<svg viewBox="0 0 22 23" fill="currentColor" xmlns="http://www.w3.org/2000/svg">
<path d="M5.24923 0.0736689C4.98379 0.241249 5.0036 -0.437245 5.0036 9.14342C5.0036 17.6655 5.0036 17.8494 5.07887 18.0333C5.13038 18.1519 5.20169 18.2418 5.28885 18.2908C5.41563 18.3603 5.78408 18.3644 13.5256 18.3644C20.0706 18.3644 21.6514 18.3562 21.7266 18.3113C21.8574 18.2377 22 18.0006 22 17.8535C22 17.6655 21.8653 17.457 21.4533 17.0156C21.2393 16.7908 20.7758 16.284 20.4153 15.8916C20.0547 15.4992 19.5555 14.9556 19.3059 14.6899C18.6641 14.0032 18.6285 13.9665 18.4621 13.7621C18.3789 13.664 18.0817 13.3411 17.8083 13.0509C17.531 12.7566 17.1824 12.3806 17.0318 12.213C16.8813 12.0454 16.5683 11.7021 16.3385 11.4568C16.1087 11.2075 15.5065 10.5658 15.0073 10.0263C14.5081 9.48676 13.8821 8.81644 13.6207 8.53441C13.3592 8.25239 12.6619 7.50032 12.0755 6.85861C11.4852 6.22099 10.7642 5.43623 10.467 5.1215C10.1738 4.80678 9.83311 4.43892 9.71426 4.30404C9.5954 4.16916 9.44881 4.00158 9.38146 3.93209C9.31807 3.8667 9.1279 3.66233 8.96546 3.48249C8.80303 3.30265 8.48212 2.95523 8.25233 2.7059C7.57089 1.9661 6.81021 1.13228 6.60419 0.891132C6.49722 0.768513 6.27536 0.519187 6.10896 0.343432C5.81578 0.0287087 5.79993 0.0205333 5.59392 0.00418407C5.42752 -0.00807787 5.35224 0.00418457 5.24923 0.0736689ZM6.38629 2.28899C6.52892 2.45249 6.88152 2.83669 7.16281 3.13916C7.74917 3.7686 8.71983 4.8313 9.06847 5.22369C9.19525 5.37083 9.52409 5.72643 9.80142 6.02071C10.0748 6.31091 10.4115 6.67877 10.5542 6.83409C10.6928 6.98941 10.9226 7.23873 11.0653 7.38996C11.2079 7.53711 11.4812 7.83548 11.6793 8.04802C11.8735 8.26056 12.2934 8.71017 12.6104 9.04942C12.9273 9.38457 13.2997 9.78922 13.4424 9.94862C13.581 10.1039 13.9812 10.5372 14.3338 10.9091C14.6824 11.2811 15.0628 11.6939 15.1816 11.8288C15.3005 11.9596 15.5501 12.2334 15.7363 12.4378C15.9265 12.6381 16.4138 13.1735 16.8298 13.6231C17.2418 14.0727 17.7529 14.6245 17.9629 14.8493C18.1728 15.0741 18.5017 15.4338 18.6958 15.6463C18.8899 15.8589 19.302 16.3003 19.611 16.6273C19.924 16.9543 20.1775 17.2363 20.1775 17.2527C20.1775 17.269 17.9074 17.2772 15.138 17.2731L10.0946 17.2608L10.0748 15.8916C10.0589 14.6776 10.0471 14.506 9.98762 14.412C9.84104 14.179 9.81726 14.1749 7.87595 14.1667L6.09311 14.1545V8.07663C6.09311 4.72912 6.10103 1.99471 6.10896 1.99471C6.11688 1.99471 6.2397 2.12959 6.38629 2.28899ZM9.02489 16.2881V17.2608H6.09707L6.08519 16.3412C6.08122 15.8344 6.08519 15.3929 6.09311 15.3602C6.10896 15.3071 6.30309 15.2989 7.56693 15.3071L9.02489 15.3194V16.2881ZM14.3615 3.26178L14.2744 3.34761V5.73051C14.2744 8.37092 14.2546 8.19517 14.5398 8.23604C14.7379 8.26056 14.9003 8.19517 14.9479 8.06437C14.9954 7.93358 15.0549 7.93766 15.2252 8.08481C15.3005 8.15429 15.3916 8.20743 15.4312 8.20743C15.4669 8.20743 15.5105 8.22378 15.5224 8.2483C15.554 8.29735 16.3464 8.30144 16.4455 8.25239C16.4811 8.23604 16.5762 8.18699 16.6515 8.14612C17.2101 7.85183 17.5746 6.95671 17.4478 6.19647C17.3012 5.34631 16.7426 4.81496 15.9859 4.81496C15.6848 4.81496 15.459 4.87627 15.2648 5.00706L15.1262 5.10107L15.1024 4.23456C15.0905 3.75634 15.0786 3.35987 15.0747 3.35578C14.936 3.20455 14.8766 3.18003 14.6705 3.18003C14.5002 3.18003 14.4289 3.20047 14.3615 3.26178ZM16.1602 5.69373C16.3147 5.75913 16.3543 5.79591 16.493 6.00028C16.5802 6.12698 16.5921 6.18421 16.5921 6.53163C16.5921 6.96897 16.5405 7.12429 16.3266 7.33274C16.1444 7.51258 16.0532 7.55346 15.8393 7.55346C15.5303 7.55346 15.2846 7.38588 15.1658 7.09159C15.0826 6.87905 15.0865 6.2823 15.1737 6.0902C15.352 5.69782 15.7759 5.52615 16.1602 5.69373ZM1.43792 8.24421C1.40622 8.26465 1.27944 8.32596 1.16059 8.3791C0.712897 8.59164 0.296901 9.10255 0.122578 9.65842C0.0235318 9.97315 -0.0279717 10.5086 0.0156088 10.7783C0.0552274 11.0318 0.0750363 11.1053 0.185969 11.3506C0.269168 11.5468 0.617812 11.8615 0.823829 11.9391C1.2319 12.0863 1.77071 11.9964 2.14709 11.7143L2.31745 11.5876L2.44423 11.7348C2.58686 11.9064 2.72156 11.9678 2.95531 11.9678C3.33169 11.9678 3.61694 11.7879 3.61694 11.5549C3.61694 11.4201 3.5179 11.3301 3.33169 11.2934C3.17321 11.2607 3.07813 11.1789 3.12171 11.1094C3.13756 11.0849 3.16529 10.9582 3.1851 10.8315C3.20887 10.7048 3.24057 10.5168 3.25641 10.4146C3.35546 9.88731 3.42678 9.48267 3.44262 9.37231C3.45451 9.30283 3.47828 9.1843 3.49809 9.10664C3.62091 8.59572 3.62883 8.50171 3.56148 8.39136C3.52582 8.33413 3.46243 8.28917 3.41885 8.28917C3.37923 8.28917 3.33169 8.26874 3.3198 8.2483C3.30792 8.22378 3.22868 8.20743 3.14548 8.20743C2.99889 8.20743 2.87211 8.28917 2.79288 8.43632C2.76118 8.49354 2.74137 8.49354 2.60271 8.40362C2.51951 8.35048 2.39669 8.28509 2.33726 8.25648C2.21444 8.20334 1.533 8.19108 1.43792 8.24421ZM2.25406 9.00445C2.3333 9.03715 2.45216 9.12707 2.51555 9.19656C2.64233 9.3437 2.64233 9.32735 2.52743 9.94454C2.49574 10.1244 2.45612 10.3492 2.44423 10.4432C2.40065 10.7375 1.93315 11.1707 1.56866 11.2484C1.06946 11.3628 0.708935 10.8478 0.843638 10.2184C0.966456 9.64208 1.22002 9.26604 1.63601 9.0535C1.87769 8.9268 2.04805 8.91453 2.25406 9.00445ZM13.1254 19.3903C12.9907 19.4189 12.8204 19.4802 12.6104 19.5865C12.4123 19.6846 11.8972 20.1873 11.8972 20.2854C11.8972 20.3181 11.8854 20.3468 11.8655 20.3468C11.8339 20.3468 11.7784 20.4694 11.6873 20.7351C11.4377 21.4626 11.5129 22.1697 11.8893 22.5989C12.1468 22.8972 12.3172 22.9749 12.753 22.9953C12.9828 23.0076 13.173 22.9953 13.268 22.9626C13.5137 22.8809 13.7197 22.7828 13.7197 22.7501C13.7197 22.7297 13.7435 22.7174 13.7752 22.7174C13.8029 22.7174 13.894 22.6438 13.9733 22.5539C14.0842 22.4272 14.1159 22.3577 14.1159 22.2351C14.1159 22.1493 14.0961 22.0593 14.0683 22.0307C13.997 21.9572 13.7831 21.9694 13.589 22.0553C13.0343 22.3087 12.7015 22.276 12.4638 21.9531C12.3608 21.8141 12.3529 21.7814 12.3529 21.4135C12.3568 21.0661 12.3687 20.9926 12.4678 20.7923C12.5945 20.5266 12.6936 20.404 12.8877 20.265C13.2601 19.9912 13.6444 20.0034 13.9614 20.2895C14.0604 20.3795 14.2862 20.3631 14.3853 20.2527C14.5398 20.0811 14.5358 19.9666 14.3694 19.7745C14.1555 19.5334 13.894 19.4108 13.5256 19.3903C13.3592 19.3781 13.1809 19.3821 13.1254 19.3903Z"/>
</svg>
