<svg width="24" height="24" viewBox="0 0 24 24" fill="none" xmlns="http://www.w3.org/2000/svg">
<path d="M6.93298 15.5V2L20.5 15.5H6.93298Z" stroke="black" stroke-miterlimit="10"/>
<path d="M7 12.5H10V15.5" stroke="black" stroke-miterlimit="10"/>
<path d="M3.85859 8.85482C4.04176 7.43344 3.62458 6.05726 2.92679 5.78105C2.229 5.50484 1.51484 6.43319 1.33166 7.85457C1.14849 9.27596 1.56567 10.6521 2.26346 10.9283C2.96125 11.2046 3.67542 10.2762 3.85859 8.85482Z" stroke="black" stroke-miterlimit="10"/>
<path d="M18.9304 6.79154C13.8179 8.33718 13.5397 0.732654 19 2.18555" stroke="black" stroke-miterlimit="10"/>
<path d="M14.6511 23C15.3961 23 16 22.3284 16 21.5C16 20.6716 15.3961 20 14.6511 20C13.9062 20 13.3022 20.6716 13.3022 21.5C13.3022 22.3284 13.9062 23 14.6511 23Z" stroke="black" stroke-miterlimit="10"/>
<path d="M12.493 17C12.493 20.75 13.3923 21.5 12.493 23" stroke="black" stroke-miterlimit="10"/>
<path d="M4.85237 4.99989C4.01017 7.99256 3.39428 11.382 5.00003 10.9649" stroke="black" stroke-miterlimit="10"/>
</svg>
