<svg viewBox="0 0 24 24" fill="currentColor" xmlns="http://www.w3.org/2000/svg">
<path d="M3.01863 18.9814C2.84678 18.8095 2.75024 18.5764 2.75024 18.3333C2.75024 18.0902 2.84678 17.8571 3.01863 17.6852L17.6853 3.01856C17.7699 2.931 17.871 2.86117 17.9828 2.81313C18.0947 2.76509 18.215 2.7398 18.3367 2.73874C18.4584 2.73769 18.5791 2.76088 18.6918 2.80697C18.8044 2.85306 18.9068 2.92113 18.9928 3.00719C19.0789 3.09326 19.147 3.19561 19.1931 3.30826C19.2391 3.42092 19.2623 3.54163 19.2613 3.66334C19.2602 3.78505 19.2349 3.90534 19.1869 4.01718C19.1388 4.12901 19.069 4.23016 18.9815 4.31472L4.3148 18.9814C4.1429 19.1532 3.90978 19.2498 3.66671 19.2498C3.42365 19.2498 3.19053 19.1532 3.01863 18.9814Z"/>
</svg>
