<svg width="24" height="24" viewBox="0 0 24 24" fill="none" xmlns="http://www.w3.org/2000/svg">
<path d="M3 21C10.7727 20.9609 3.81818 13.1565 9 13" stroke="black" stroke-miterlimit="10"/>
<path d="M12 4.05721L12.1712 4L13.3601 6.59356H18.0204L19.2093 4L19.39 4.05721L15.8044 12H15.5951L12 4.05721ZM13.4362 6.7652L15.6902 11.7521L17.9443 6.75566L13.4362 6.7652Z" fill="black" stroke="black" stroke-miterlimit="10"/>
<path d="M12 16.6975C14.7764 14.467 16.8132 18.4918 19 16.3486" stroke="black" stroke-miterlimit="10"/>
<path d="M14 16V21" stroke="black" stroke-miterlimit="10"/>
<path d="M17 17C17 20.9994 17 21.0073 19 20.9994" stroke="black" stroke-miterlimit="10"/>
<path d="M5.94918 4C1.91483 4.01036 2.06537 7.01034 6.11979 6.99997" stroke="black" stroke-miterlimit="10"/>
<path d="M5.9491 7H8.99995" stroke="black" stroke-miterlimit="10"/>
<path d="M5.9491 4H8.99995" stroke="black" stroke-miterlimit="10"/>
<path d="M9 10L3 10" stroke="black" stroke-miterlimit="10"/>
</svg>
