<svg viewBox="0 0 24 24" fill="currentColor" xmlns="http://www.w3.org/2000/svg">
<path d="M2.83382 0.156978C1.94752 0.377971 1.4344 0.634324 1.08455 1.02327C0.454811 1.74813 0.466472 1.6067 0.466472 6.92823V11.8785L1.14286 11.905L1.80758 11.9315V10.4376C1.80758 9.61551 1.84257 8.92601 1.87755 8.89949C1.91254 8.86413 2.13411 8.90833 2.36735 8.97905C2.92711 9.16468 4.95627 9.2354 5.76093 9.10281C6.68221 8.95253 7.5102 8.51054 7.91837 7.9448C8.22157 7.52933 8.26822 7.36137 8.26822 6.75143C8.29154 5.48735 7.67347 4.78901 6.26239 4.4531L5.59767 4.29398L6.11079 4.12603C7.33528 3.72824 7.74344 3.26857 7.7551 2.252C7.7551 1.13819 7.05539 0.466369 5.56268 0.148138C4.59475 -0.0551763 3.69679 -0.0463367 2.83382 0.156978ZM5.58601 1.13819C6.14577 1.39454 6.35569 1.72161 6.35569 2.33156C6.35569 3.34813 5.64432 3.85199 4.05831 3.94923L3.32362 3.99343V4.76249H4C4.74636 4.76249 5.64431 4.95696 6.1691 5.23099C6.83382 5.58458 7.1137 6.46856 6.79883 7.2553C6.37901 8.31607 4.29155 8.6785 2.30904 8.02435L1.80758 7.86524V5.13376C1.80758 2.17244 1.87755 1.72161 2.43732 1.32382C3.12536 0.837638 4.74635 0.740401 5.58601 1.13819ZM9.97085 0.652003C9.97085 0.722721 10.309 1.43874 10.7289 2.24316C11.137 3.03874 11.8017 4.32934 12.1983 5.08956C12.5948 5.85862 13.2245 7.06082 13.586 7.768L14.2507 9.04977L14.8921 9.07629L15.5452 9.10281L17.7143 4.9658C18.9038 2.69399 19.895 0.76692 19.9067 0.696202C19.93 0.590125 19.8017 0.563606 19.2536 0.563606C18.7638 0.563606 18.5423 0.598965 18.4723 0.696202C18.414 0.76692 18.0991 1.35918 17.7726 2.00449L17.1662 3.17133L14.8921 3.15365L12.6181 3.12713L12.0466 1.94261C11.7318 1.28847 11.4169 0.696202 11.3469 0.634324C11.1604 0.466369 9.97085 0.475208 9.97085 0.652003ZM16.5714 4.25862C16.6064 4.32934 16.5714 4.4973 16.4898 4.63873C16.4198 4.78017 16.0816 5.51387 15.7318 6.26525C15.3819 7.01662 15.0671 7.69728 15.0321 7.768C14.9738 7.88292 14.9621 7.88292 14.8688 7.768C14.6356 7.44093 13.2362 4.30282 13.2945 4.22326C13.3411 4.17906 14.0758 4.1437 14.9388 4.1437C16.1399 4.1437 16.5248 4.17022 16.5714 4.25862ZM3.207 13.5492C1.79592 13.7967 0.96793 14.2741 0.38484 15.1757C0.0116622 15.7503 0 15.7945 0 16.8729C0 17.9072 0.0233238 18.0133 0.338193 18.526C0.536443 18.8531 0.886297 19.2332 1.16618 19.4276C2.3207 20.232 3.44023 20.4265 6.82216 20.3912L9.21283 20.3646L9.24781 19.9492L9.2828 19.5426L6.39067 19.5072L3.49854 19.4807L2.7172 19.189C2.13411 18.9768 1.86589 18.8088 1.59767 18.4995C0.851312 17.6597 0.851313 16.0508 1.58601 15.2906C2.41399 14.4155 3.38192 14.221 6.83382 14.221H9.27114V13.4254L6.5656 13.4343C4.81633 13.4343 3.61516 13.4785 3.207 13.5492ZM10.9388 14.7956C10.4257 14.9724 10.3207 15.0431 10.3207 15.2288C10.3207 15.4409 10.3557 15.4497 11.172 15.4763L12.0117 15.5028L12.07 18.2431L12.1283 20.9834H13.2945L13.3528 18.2431L13.4111 15.5028L15.1953 15.4763L16.9679 15.4497V17.6862C16.9679 18.9149 17.0262 20.0641 17.0845 20.2409C17.2711 20.7448 17.7843 21.0541 18.5073 21.0983C18.8455 21.116 19.2653 21.0895 19.4519 21.0365C19.7201 20.9569 19.7668 20.895 19.7668 20.5856V20.232H19.2653C18.3673 20.232 18.3673 20.2321 18.3673 17.6862V15.4586H20V15.0696C20 14.7956 19.9417 14.663 19.8134 14.6276C19.7085 14.6011 17.8076 14.5746 15.5918 14.5835C11.5802 14.5835 11.5452 14.5834 10.9388 14.7956ZM0.548105 21.5315L0.58309 21.9558L4.93294 21.9823L9.27114 22V21.116H0.51312L0.548105 21.5315Z"/>
</svg>
