<svg width="24" height="24" viewBox="0 0 24 24" fill="none" xmlns="http://www.w3.org/2000/svg">
<path d="M7 20.93C9.99089 17.1709 29.9595 21.9642 16.2286 12" stroke="black" stroke-miterlimit="10"/>
<path d="M13 7L5 2.5L3.5 5.5L11 11" stroke="black" stroke-miterlimit="10"/>
<path d="M13.5232 9.8261L12.9471 10.9538C12.9471 10.9538 12.9471 10.9538 11.1195 10.9998C10.6229 11.0229 11.8347 8.60634 11.8347 8.60634C11.8347 8.60634 13.0067 6.55806 13.2252 7.08739C14 8.99758 14 8.99758 14 8.99758L13.5232 9.8261Z" stroke="black" stroke-miterlimit="2.61313"/>
<path d="M14 9L14.5 9.96297L15 11H14H13L13.5 9.96297L14 9Z" stroke="black" stroke-miterlimit="10"/>
</svg>
