<?xml version="1.0" encoding="utf-8"?>
<!-- Generator: Adobe Illustrator 28.1.0, SVG Export Plug-In . SVG Version: 6.00 Build 0)  -->
<svg version="1.1" id="Слой_1" xmlns="http://www.w3.org/2000/svg" xmlns:xlink="http://www.w3.org/1999/xlink" x="0px" y="0px"
	 viewBox="0 0 24 24" style="enable-background:new 0 0 24 24;" xml:space="preserve">
<style type="text/css">
	.st0{display:none;}
	.st1{display:inline;fill:none;stroke:#000000;stroke-miterlimit:1;}
	.st2{display:inline;fill:none;stroke:#000000;stroke-width:0.4;stroke-miterlimit:10;}
	.st3{display:inline;}
	.st4{fill:none;stroke:#000000;stroke-width:0.4;stroke-miterlimit:10;}
</style>
<g class="st0">
	<path class="st1" d="M20.26,3.87"/>
	<path class="st1" d="M3.74,20.39"/>
	<line class="st2" x1="14.27" y1="6.14" x2="18.56" y2="6.14"/>
	<line class="st2" x1="14.27" y1="8.8" x2="18.56" y2="8.8"/>
	<line class="st2" x1="14.27" y1="11.77" x2="18.56" y2="11.77"/>
	<line class="st2" x1="5.4" y1="14.73" x2="18.56" y2="14.73"/>
	<line class="st2" x1="5.4" y1="17.7" x2="18.56" y2="17.7"/>
	<line class="st2" x1="6.6" y1="6.19" x2="11.66" y2="6.19"/>
	<line class="st2" x1="9.09" y1="11.76" x2="9.09" y2="6.14"/>
	<path class="st2" d="M6.8,6.09v0.96V6.09z"/>
	<path class="st2" d="M11.61,7.45"/>
	<path class="st2" d="M11.61,6.3"/>
	<line class="st2" x1="7.87" y1="11.79" x2="10.31" y2="11.79"/>
	<path class="st2" d="M3.25,6.73c0-1.8,1.32-3.26,2.95-3.26"/>
	<path class="st2" d="M20.74,6.64c0-1.8-1.32-3.26-2.95-3.26"/>
	<path class="st2" d="M3.26,17.27c0,1.8,1.32,3.26,2.95,3.26"/>
	<path class="st2" d="M20.75,17.36c0,1.8-1.32,3.26-2.95,3.26"/>
	<line class="st2" x1="11.46" y1="6.09" x2="11.46" y2="7.05"/>
</g>
<g class="st0">
	<path class="st2" d="M3.21,10.75l4.04-7.34c0.1-0.18,0.36-0.17,0.45,0.01l3.56,7.37c0.05,0.1,0.03,0.22-0.05,0.29
		c-0.63,0.61-3.56,3-7.92,0C3.18,11.01,3.14,10.86,3.21,10.75z"/>
	<path class="st2" d="M7.5,13.69l3.74,2.24c0.48,0.29,1.07,0.28,1.54-0.01l3.73-2.27c0.1-0.06,0.1-0.21-0.01-0.26l-3.54-1.85
		c-0.62-0.33-1.37-0.33-1.99,0l-3.47,1.82C7.38,13.43,7.38,13.62,7.5,13.69z"/>
	<path class="st2" d="M7.41,13.6v4.15c0,0.49,0.28,0.93,0.72,1.14l3.83,1.85c0.1,0.05,0.19,0.11,0.12-0.12v-4.37"/>
	<path class="st2" d="M16.59,13.52v4.12c0,0.63,0,1.09-0.76,1.48l-3.72,1.67"/>
	<ellipse class="st2" cx="17.45" cy="4.61" rx="3.34" ry="1.34"/>
	<path class="st2" d="M14.11,4.53l0,7.33c1.15,1.59,5.87,1.66,6.69,0.09c0,0,0-0.23,0-0.7l0-6.63"/>
	<path class="st2" d="M17.22,16.4"/>
</g>
<g class="st0">
	<line class="st2" x1="3.53" y1="6.16" x2="3.53" y2="16.89"/>
	<path class="st2" d="M3.53,6.27C3.49,3.49,5.18,3.49,7.65,3.49"/>
	<line class="st2" x1="7.65" y1="3.49" x2="19.49" y2="3.49"/>
	<line class="st2" x1="7.39" y1="20.49" x2="19.11" y2="20.49"/>
	<path class="st2" d="M7.68,20.51"/>
	<path class="st2" d="M3.25,17.77"/>
	<path class="st2" d="M18.98,20.49c1.54,0.02,1.54,0,1.54-1.04c0-1.04,0-1.04-1.03-1.04"/>
	<line class="st2" x1="7.78" y1="18.41" x2="19.62" y2="18.41"/>
	<path class="st2" d="M7.91,18.41c-1.08,0,0.49-0.61,0.49-1.04c0-0.36-1.59-1.04-0.49-1.04"/>
	<line class="st2" x1="7.7" y1="16.33" x2="19.41" y2="16.33"/>
	<path class="st2" d="M19.23,16.33c1.29,0,1.29,0,1.29-1.21c0-0.69,0-0.69-1.54-0.69"/>
	<line class="st2" x1="7.44" y1="14.42" x2="19.16" y2="14.42"/>
	<path class="st2" d="M7.91,20.49c-2.7,0.03-4.38-0.47-4.41-3.04c-0.03-1.72,0.65-3.03,4.16-3.03"/>
	<line class="st2" x1="7.13" y1="3.49" x2="7.13" y2="14.42"/>
	<line class="st2" x1="20.52" y1="4.44" x2="20.52" y2="15.37"/>
	<path class="st2" d="M19.49,18.41c-1.06,0-1.54-0.35-1.54-1.04c0-0.59,0.48-1.04,1.54-1.04"/>
	<path class="st2" d="M20.52,4.53c0-0.69-0.24-0.99-1.03-1.04"/>
	<path class="st2" d="M20.52,4.53"/>
	<line class="st2" x1="9.7" y1="7.8" x2="17.95" y2="7.8"/>
	<line class="st2" x1="10.93" y1="9.7" x2="16.75" y2="9.7"/>
</g>
<g class="st0">
	<g class="st3">
		<path class="st4" d="M3.21,20.79c3.74-4.18,28.71,1.15,11.54-9.93"/>
	</g>
	<line class="st2" x1="3.27" y1="4.83" x2="12.28" y2="10.55"/>
	<line class="st2" x1="4.35" y1="3.15" x2="13.36" y2="8.83"/>
	<line class="st2" x1="3.32" y1="5.1" x2="4.59" y2="3.14"/>
	<path class="st2" d="M13.5,10.02l-0.29,0.49c0,0,0,0-0.92,0.02c-0.25,0.01,0.36-1.04,0.36-1.04s0.59-0.89,0.7-0.66
		c0.39,0.83,0.39,0.83,0.39,0.83L13.5,10.02z"/>
	<polygon class="st2" points="14.02,10.26 14.1,10.39 14.18,10.53 14.02,10.53 13.86,10.53 13.94,10.39 	"/>
</g>
<g class="st0">
	<line class="st2" x1="12" y1="3.89" x2="12" y2="20.99"/>
	<line class="st2" x1="2.99" y1="12.01" x2="20.11" y2="12.01"/>
	<polygon class="st2" points="12,3.52 12.04,3.61 12.08,3.7 12,3.7 11.92,3.7 11.96,3.61 	"/>
	<polygon class="st2" points="20.47,12.01 20.38,12.04 20.29,12.08 20.29,12.01 20.29,11.93 20.38,11.97 	"/>
	<path class="st2" d="M8.5,6.86c0,10.47,7.11,10.38,7-0.07"/>
</g>
<g class="st0">
	<line class="st2" x1="6.03" y1="6.36" x2="17.99" y2="6.36"/>
	<path class="st2" d="M9.86,5.46c0-1.19,0.96-2.15,2.15-2.15"/>
	<path class="st2" d="M14.16,5.46c0-1.19-0.96-2.15-2.15-2.15"/>
	<line class="st2" x1="10.75" y1="5.46" x2="13.27" y2="5.46"/>
	<line class="st2" x1="5.41" y1="7.25" x2="6.47" y2="18.64"/>
	<line class="st2" x1="18.61" y1="7.25" x2="17.54" y2="18.64"/>
	<path class="st2" d="M17.55,18.54c-0.18,2.15-0.82,2.16-2.25,2.16"/>
	<line class="st2" x1="4.62" y1="7.24" x2="19.3" y2="7.24"/>
	<line class="st2" x1="8.35" y1="9.58" x2="9.16" y2="18.36"/>
	<line class="st2" x1="15.67" y1="9.7" x2="14.85" y2="18.47"/>
	<line class="st2" x1="12.01" y1="9.45" x2="12.01" y2="18.49"/>
	<path class="st2" d="M6.46,18.53c0.18,2.15,0.83,2.16,2.25,2.16"/>
	<line class="st2" x1="8.47" y1="20.7" x2="15.51" y2="20.7"/>
</g>
<path class="st4" d="M16.65,20.61H7.4c-0.56,0-1.01-0.46-1.01-1.01V4.41c0-0.56,0.46-1.01,1.01-1.01h9.25
	c0.56,0,1.01,0.46,1.01,1.01v15.19C17.66,20.15,17.2,20.61,16.65,20.61z"/>
</svg>
