<svg viewBox="0 0 24 24" fill="none" xmlns="http://www.w3.org/2000/svg">
<path d="M13 14L20 20" stroke="black" stroke-miterlimit="10"/>
<path d="M20 4H13V11H20V4Z" stroke="black" stroke-miterlimit="10"/>
<path d="M6.5 11C8.433 11 10 9.433 10 7.5C10 5.567 8.433 4 6.5 4C4.567 4 3 5.567 3 7.5C3 9.433 4.567 11 6.5 11Z" stroke="black" stroke-miterlimit="10"/>
<path d="M6.35497 14.0793C6.42127 13.9736 6.57873 13.9736 6.64503 14.0793L8.31079 16.9177L9.97655 19.756C10.0428 19.8617 9.95997 20 9.83566 20H6.50414H3.16434C3.04003 20 2.95715 19.8617 3.02345 19.756L4.68921 16.9177L6.35497 14.0793Z" stroke="black" stroke-miterlimit="10"/>
</svg>
