<svg viewBox="0 0 24 24" fill="currentColor" xmlns="http://www.w3.org/2000/svg">
<path d="M3.52895 0.255536C2.11508 0.746834 0.519933 2.45728 0.139274 3.85839C-0.132626 4.85918 0.0123873 6.82437 0.411173 7.6068C0.59244 7.93433 1.06373 8.5894 1.48064 9.0443C3.51083 11.246 6.64674 11.3188 8.84006 9.20807C9.98204 8.0981 10.4896 6.91535 10.4896 5.35047C10.4896 4.38607 10.3808 3.85838 10.0545 3.16693C9.52887 2.05696 8.31439 0.856011 7.22679 0.364713C6.26608 -0.0719957 4.5803 -0.126584 3.52895 0.255536ZM7.00927 1.96598C8.26001 2.60285 8.85819 3.69462 8.85819 5.35047C8.85819 7.69778 7.49869 9.11709 5.23286 9.11709C3.90961 9.11709 2.85827 8.5894 2.20571 7.58861C1.75254 6.91535 1.69816 6.6606 1.69816 5.35047C1.69816 4.04035 1.75254 3.7856 2.18758 3.13054C3.11204 1.72943 5.43225 1.16535 7.00927 1.96598ZM11.4865 0.38291C11.4322 0.528479 11.414 2.87579 11.4322 5.62342L11.4865 10.6274H22V0.255536L16.7795 0.200948C12.6829 0.164555 11.5409 0.200948 11.4865 0.38291ZM20.4592 5.44145V9.0807H13.0273V1.80221H20.4592V5.44145ZM4.90658 11.4826C4.56217 11.9193 0.1574 20.981 0.1574 21.2722C0.1574 21.9636 0.465553 22 5.41413 22C10.4715 22 10.689 21.9636 10.6709 21.1994C10.6527 20.981 9.58325 18.6883 8.26001 16.0862C6.39296 12.3924 5.77666 11.337 5.48663 11.3006C5.28724 11.2642 5.01534 11.3552 4.90658 11.4826ZM7.0999 17.178L8.67692 20.3623H2.15133L3.72835 17.178C4.59843 15.4312 5.35975 13.9937 5.41413 13.9937C5.46851 13.9937 6.22982 15.4312 7.0999 17.178ZM11.2146 12.265C11.1059 12.4106 11.0334 12.6653 11.0696 12.8291C11.1603 13.3204 20.8399 21.2903 21.2568 21.2358C21.6737 21.163 22 20.6899 21.8731 20.3259C21.71 19.9256 12.0666 11.9921 11.7403 11.9921C11.5772 11.9921 11.3415 12.1195 11.2146 12.265Z"/>
</svg>
