<svg viewBox="0 0 24 24" fill="none" xmlns="http://www.w3.org/2000/svg">
<path d="M6.25 11.1279L10.0833 11.1279" stroke="black" stroke-miterlimit="10"/>
<path d="M15.8333 7.29462H20.625" stroke="black" stroke-miterlimit="10"/>
<path d="M15.8333 11.1279H20.625" stroke="black" stroke-miterlimit="10"/>
<path d="M3.375 14.9613H20.625" stroke="black" stroke-miterlimit="10"/>
<path d="M3.375 18.7083H20.625" stroke="black" stroke-miterlimit="10"/>
<path d="M4.88095 3.21289L11.4526 3.29986" stroke="black" stroke-miterlimit="10"/>
<path d="M8.16666 11.0417V3.375" stroke="black" stroke-miterlimit="10"/>
<path d="M5.29166 3.375V4.33333" stroke="black" stroke-miterlimit="10"/>
<path d="M15.8333 3.4613L20.4336 3.53115" stroke="black" stroke-miterlimit="10"/>
<path d="M0.5 3.375C0.5 1.78489 2.64237 0.5 5.29167 0.5" stroke="black" stroke-miterlimit="10"/>
<path d="M23.5 3.375C23.5 1.78489 21.3576 0.5 18.7083 0.5" stroke="black" stroke-miterlimit="10"/>
<path d="M0.5 18.7083C0.5 21.3585 2.64237 23.5 5.29167 23.5" stroke="black" stroke-miterlimit="10"/>
<path d="M23.5 18.7083C23.5 21.3585 21.3576 23.5 18.7083 23.5" stroke="black" stroke-miterlimit="10"/>
<path d="M11.0417 3.375V4.33333" stroke="black" stroke-miterlimit="10"/>
</svg>
