<svg viewBox="0 0 24 24" fill="none" xmlns="http://www.w3.org/2000/svg">
<path d="M2.2643 19.3908L10.634 3.53046C11.2392 2.38348 11.5419 1.80998 11.9456 1.62248C12.2972 1.45917 12.7026 1.45917 13.0543 1.62248C13.4581 1.80998 13.7607 2.38348 14.366 3.53045L22.7355 19.3908C23.277 20.4168 23.5478 20.9298 23.493 21.3484C23.4452 21.7136 23.2479 22.0425 22.9485 22.2557C22.6054 22.5 22.0268 22.5 20.8696 22.5H4.13031C2.97311 22.5 2.39452 22.5 2.05142 22.2557C1.75196 22.0425 1.55463 21.7136 1.50687 21.3484C1.45215 20.9298 1.72287 20.4168 2.2643 19.3908Z" stroke="black" stroke-width="2" stroke-linecap="round" stroke-linejoin="round"/>
</svg>
